<?xml version="1.0" encoding="utf-8"?>
<!-- Generator: Adobe Illustrator 16.0.3, SVG Export Plug-In . SVG Version: 6.00 Build 0)  -->
<!DOCTYPE svg PUBLIC "-//W3C//DTD SVG 1.1//EN" "http://www.w3.org/Graphics/SVG/1.1/DTD/svg11.dtd">
<svg version="1.1" id="Layer_1" xmlns="http://www.w3.org/2000/svg" xmlns:xlink="http://www.w3.org/1999/xlink" x="0px" y="0px"
	 width="30px" height="30px" viewBox="0 0 30 30" xml:space="preserve">
<g>
	<path fill="#ADAA97" d="M22.016,8.046c-0.379-0.38-0.994-0.38-1.373,0l-5.607,5.606L9.358,7.976c-0.379-0.379-0.994-0.379-1.373,0
		s-0.379,0.994,0,1.373l5.615,5.617L7.985,20.58c-0.379,0.38-0.379,0.994,0,1.374s0.994,0.38,1.373,0l5.607-5.606l5.677,5.677
		c0.379,0.379,0.994,0.379,1.373,0s0.379-0.994,0-1.373L16.4,15.035l5.615-5.615C22.395,9.04,22.395,8.426,22.016,8.046z"/>
	<path fill="#ADAA97" d="M14.999,0.5C6.991,0.5,0.5,6.991,0.5,14.999C0.5,23.006,6.991,29.5,14.999,29.5
		c8.007,0,14.501-6.494,14.501-14.501C29.5,6.991,23.006,0.5,14.999,0.5z M14.999,27.557c-6.923,0-12.557-5.634-12.557-12.558
		c0-6.923,5.634-12.558,12.557-12.558c6.924,0,12.558,5.635,12.558,12.558C27.557,21.923,21.923,27.557,14.999,27.557z"/>
</g>
</svg>
