<?xml version="1.0" encoding="utf-8"?>
<!-- Generator: Adobe Illustrator 16.0.3, SVG Export Plug-In . SVG Version: 6.00 Build 0)  -->
<!DOCTYPE svg PUBLIC "-//W3C//DTD SVG 1.1//EN" "http://www.w3.org/Graphics/SVG/1.1/DTD/svg11.dtd">
<svg version="1.1" id="Layer_1" xmlns="http://www.w3.org/2000/svg" xmlns:xlink="http://www.w3.org/1999/xlink" x="0px" y="0px"
	 width="30px" height="30px" viewBox="0 0 30 30" xml:space="preserve">
<path fill="#adaa96" d="M10.505,15.759l6.3,6.3c0.378,0.379,0.994,0.379,1.373,0s0.379-0.995,0-1.373l-5.616-5.617l5.616-5.615
	c0.379-0.38,0.379-0.994,0-1.374s-0.995-0.38-1.373,0l-6.3,6.299c-0.192,0.191-0.286,0.442-0.284,0.69
	C10.221,15.319,10.313,15.568,10.505,15.759z M14.999,29.5c8.007,0,14.501-6.494,14.501-14.501C29.5,6.991,23.006,0.5,14.999,0.5
	C6.991,0.5,0.5,6.991,0.5,14.999C0.5,23.006,6.991,29.5,14.999,29.5z M14.999,2.441c6.924,0,12.558,5.635,12.558,12.558
	c0,6.924-5.634,12.558-12.558,12.558c-6.923,0-12.557-5.634-12.557-12.558C2.442,8.076,8.076,2.441,14.999,2.441z"/>
</svg>
