<?xml version="1.0" encoding="utf-8"?>
<!-- Generator: Adobe Illustrator 16.0.3, SVG Export Plug-In . SVG Version: 6.00 Build 0)  -->
<!DOCTYPE svg PUBLIC "-//W3C//DTD SVG 1.1//EN" "http://www.w3.org/Graphics/SVG/1.1/DTD/svg11.dtd">
<svg version="1.1" id="Layer_1" xmlns="http://www.w3.org/2000/svg" xmlns:xlink="http://www.w3.org/1999/xlink" x="0px" y="0px"
	 width="30px" height="30px" viewBox="0 0 30 30" xml:space="preserve">
<path fill="#adaa96" d="M19.495,14.241l-6.299-6.3c-0.378-0.378-0.994-0.378-1.374,0c-0.378,0.378-0.378,0.995,0,1.373l5.616,5.617
	l-5.616,5.615c-0.378,0.38-0.378,0.994,0,1.374c0.379,0.38,0.995,0.38,1.374,0l6.299-6.299c0.192-0.191,0.286-0.442,0.284-0.69
	C19.779,14.681,19.688,14.432,19.495,14.241z M15.001,0.5c-8.007,0-14.5,6.493-14.5,14.5c0,8.008,6.493,14.499,14.5,14.499
	c8.008,0,14.499-6.491,14.499-14.499C29.5,6.994,23.009,0.5,15.001,0.5z M15.001,27.559c-6.924,0-12.558-5.635-12.558-12.558
	c0-6.924,5.634-12.558,12.558-12.558c6.923,0,12.557,5.634,12.557,12.558C27.558,21.924,21.924,27.559,15.001,27.559z"/>
</svg>
